<?xml version="1.0" standalone="no"?>
<!DOCTYPE svg PUBLIC "-//W3C//DTD SVG 20010904//EN"
 "http://www.w3.org/TR/2001/REC-SVG-20010904/DTD/svg10.dtd">
<svg version="1.0" xmlns="http://www.w3.org/2000/svg"
 width="225.000000pt" height="225.000000pt" viewBox="0 0 225.000000 225.000000"
 preserveAspectRatio="xMidYMid meet">

<g transform="translate(0.000000,225.000000) scale(0.100000,-0.100000)"
fill="#000000" stroke="none">
<path d="M502 2239 c-230 -34 -426 -215 -483 -449 -11 -41 -14 -138 -13 -389
1 -298 3 -335 18 -343 9 -5 16 -18 16 -29 0 -11 5 -17 10 -14 6 3 10 -2 10
-12 0 -15 2 -16 10 -3 8 12 10 11 10 -7 0 -13 6 -23 13 -23 14 0 67 -63 68
-82 0 -7 4 -4 8 6 6 17 9 15 20 -12 8 -18 17 -32 21 -32 15 0 20 111 20 426 0
293 2 328 20 386 48 158 181 290 339 338 59 19 94 20 550 20 535 0 536 0 653
-62 69 -36 166 -135 201 -203 56 -112 57 -117 58 -644 1 -465 0 -489 -20 -552
-39 -123 -135 -240 -248 -301 -94 -52 -142 -58 -448 -59 -170 0 -315 -6 -370
-14 -49 -7 -83 -13 -74 -14 9 0 24 -12 32 -24 8 -13 34 -41 58 -63 23 -21 49
-47 58 -56 14 -17 45 -18 367 -18 330 0 356 1 420 21 193 59 342 212 401 409
14 47 17 136 20 623 5 698 0 756 -85 896 -74 123 -192 216 -332 263 -64 22
-76 22 -665 24 -330 1 -628 -2 -663 -7z"/>
<path d="M640 1874 c-107 -28 -210 -122 -255 -231 -18 -45 -20 -78 -23 -495
-2 -308 0 -448 8 -448 5 0 11 -12 11 -27 l1 -28 8 30 c6 23 8 25 9 8 0 -12 7
-26 14 -30 6 -4 18 -20 26 -35 8 -16 20 -28 27 -28 11 0 56 -52 81 -94 7 -12
12 -16 13 -9 0 20 31 2 41 -23 4 -13 16 -24 24 -24 11 0 15 -7 13 -22 -3 -20
4 -25 42 -35 25 -6 36 -12 25 -13 l-20 -1 20 -9 c14 -6 15 -9 5 -10 -12 0 -11
-3 3 -11 11 -7 171 -9 465 -7 439 3 448 4 504 26 108 43 193 142 223 258 22
86 22 902 0 988 -36 137 -134 236 -270 272 -75 20 -918 19 -995 -2z m1068
-210 c31 -36 29 -79 -7 -115 -49 -48 -114 -34 -141 31 -37 88 83 157 148 84z
m-493 -134 c104 -15 199 -65 274 -145 103 -111 135 -196 129 -349 -3 -96 -6
-108 -42 -182 -198 -399 -763 -351 -890 75 -23 78 -21 197 5 274 63 189 238
323 439 336 8 0 47 -4 85 -9z"/>
<path d="M1064 1391 c-64 -16 -125 -54 -173 -107 -63 -68 -86 -133 -85 -234 2
-189 147 -332 339 -332 224 -1 386 205 331 420 -26 103 -98 190 -193 233 -50
23 -167 34 -219 20z"/>
<path d="M391 624 c0 -11 3 -14 6 -6 3 7 2 16 -1 19 -3 4 -6 -2 -5 -13z"/>
</g>
</svg>
