<?xml version="1.0" standalone="no"?>
<!DOCTYPE svg PUBLIC "-//W3C//DTD SVG 20010904//EN"
 "http://www.w3.org/TR/2001/REC-SVG-20010904/DTD/svg10.dtd">
<svg version="1.0" xmlns="http://www.w3.org/2000/svg"
 width="3840.000000pt" height="2160.000000pt" viewBox="0 0 3840.000000 2160.000000"
 preserveAspectRatio="xMidYMid meet">

<g transform="translate(0.000000,2160.000000) scale(0.100000,-0.100000)"
fill="#000000" stroke="none">
<path d="M5214 17261 c-27 -10 -84 -37 -125 -59 -151 -81 -174 -85 -507 -83
-154 2 -200 -6 -275 -47 -115 -62 -175 -235 -116 -337 56 -99 118 -137 223
-138 60 0 90 7 193 46 68 26 152 51 188 58 58 10 68 9 97 -8 91 -53 148 -218
234 -678 36 -194 48 -260 84 -445 11 -58 29 -152 39 -210 11 -58 26 -134 35
-170 8 -36 29 -144 46 -240 34 -192 63 -352 115 -625 47 -240 82 -427 105
-555 10 -58 26 -139 35 -180 9 -41 25 -124 35 -185 11 -60 30 -169 44 -242 31
-168 50 -352 42 -410 -9 -67 -34 -112 -79 -140 -36 -23 -54 -25 -211 -34 -213
-11 -257 -21 -309 -68 -85 -77 -110 -192 -61 -289 32 -64 79 -104 156 -133 50
-18 72 -21 146 -16 91 5 113 11 397 111 294 103 497 142 795 151 360 11 437
27 529 111 63 56 85 106 85 184 -1 109 -51 187 -149 231 -64 29 -128 24 -261
-22 -189 -65 -204 -69 -257 -69 -90 0 -122 36 -181 199 -26 72 -69 239 -86
331 -18 100 -50 271 -70 375 -11 61 -34 187 -50 280 -16 94 -41 224 -56 290
-14 66 -32 163 -39 215 -8 52 -19 119 -25 149 -18 93 -12 363 9 466 22 102 76
239 117 293 92 123 236 243 380 315 107 54 314 116 429 128 448 47 760 -146
906 -562 43 -121 101 -356 144 -584 14 -77 33 -171 40 -210 8 -38 26 -133 40
-210 14 -77 30 -158 35 -180 5 -22 23 -121 39 -220 17 -99 35 -194 40 -212 16
-56 36 -255 36 -358 -1 -77 -5 -108 -20 -135 -36 -68 -67 -78 -284 -90 -197
-11 -253 -25 -302 -77 -46 -48 -58 -72 -69 -136 -13 -84 4 -142 61 -202 55
-58 110 -82 211 -92 84 -7 149 8 413 99 225 78 227 79 385 113 151 32 252 42
500 50 219 8 322 22 393 54 88 40 144 108 167 202 23 91 -45 220 -142 270 -74
38 -148 27 -375 -57 -122 -45 -197 -47 -241 -6 -83 77 -144 300 -262 957 -5
28 -30 163 -55 300 -26 138 -57 309 -70 380 -13 72 -33 168 -44 215 -10 47
-22 105 -26 130 -19 122 -96 348 -157 460 -61 110 -94 156 -177 244 -156 163
-396 285 -680 347 -188 41 -496 36 -696 -11 -115 -27 -283 -84 -357 -121 -194
-98 -412 -286 -511 -440 -43 -67 -64 -86 -78 -72 -6 6 -21 73 -34 149 -13 77
-31 177 -40 224 -8 47 -26 148 -40 225 -14 77 -32 174 -40 215 -22 109 -53
269 -76 395 -37 195 -56 264 -96 331 -21 35 -45 66 -53 69 -40 16 -137 14
-186 -4z"/>
<path d="M10866 17070 c-280 -32 -571 -139 -811 -299 -117 -77 -346 -303 -426
-418 -27 -40 -82 -136 -122 -215 -102 -199 -161 -407 -186 -656 -14 -130 -14
-412 -1 -562 37 -429 222 -932 445 -1210 238 -296 426 -433 754 -550 183 -65
245 -74 516 -75 187 0 264 4 348 18 170 29 311 69 457 131 407 173 667 413
828 761 28 61 58 135 67 165 9 30 25 82 36 115 10 33 24 116 29 184 16 181 -6
258 -95 340 -64 59 -100 71 -204 72 -100 1 -130 -10 -181 -67 -43 -49 -55 -82
-69 -184 -41 -284 -62 -364 -134 -505 -41 -78 -71 -119 -142 -193 -49 -52
-115 -111 -145 -131 -195 -130 -511 -212 -760 -197 -390 22 -702 231 -917 610
-19 33 -51 103 -73 155 -44 111 -119 378 -112 403 2 10 20 22 41 27 37 10 415
83 621 121 63 12 138 25 165 30 28 6 102 19 165 30 153 28 288 54 405 80 68
14 299 57 355 65 69 9 314 54 415 75 50 11 128 26 175 35 266 47 318 64 360
111 28 32 30 40 30 113 0 118 -36 307 -97 506 -20 67 -149 339 -187 395 -187
277 -393 458 -657 576 -143 64 -274 107 -399 129 -110 20 -376 28 -494 15z
m332 -505 c123 -20 260 -65 342 -113 70 -41 249 -211 297 -282 74 -110 180
-344 190 -421 6 -43 10 -41 -112 -59 -76 -11 -177 -30 -500 -91 -115 -22 -268
-51 -340 -65 -71 -14 -148 -29 -170 -34 -22 -5 -107 -20 -190 -34 -82 -14
-220 -39 -305 -56 -85 -17 -223 -44 -306 -60 -83 -17 -159 -30 -169 -30 -17 0
-18 9 -11 138 8 174 19 244 57 362 55 168 125 285 251 417 176 184 414 295
701 328 151 17 154 17 265 0z"/>
<path d="M2057 16534 c-74 -18 -104 -34 -148 -81 -38 -40 -54 -77 -64 -153 -6
-45 -3 -74 35 -275 30 -162 60 -329 76 -425 7 -47 18 -103 23 -125 6 -22 11
-64 11 -93 0 -48 -2 -54 -32 -72 -18 -11 -49 -23 -68 -26 -332 -57 -399 -88
-465 -215 -39 -75 -42 -133 -11 -208 30 -75 48 -96 96 -121 66 -32 148 -43
241 -31 234 31 282 34 322 17 21 -9 42 -27 47 -39 14 -37 57 -231 95 -437 20
-107 52 -271 70 -365 19 -93 41 -208 49 -255 8 -47 33 -184 56 -305 22 -121
45 -247 51 -280 5 -33 14 -76 19 -95 5 -19 19 -87 31 -150 32 -173 89 -390
128 -490 97 -245 235 -407 433 -507 107 -53 192 -73 353 -79 452 -19 882 152
1068 426 108 160 143 257 173 490 26 200 15 375 -51 787 -32 195 -88 301 -185
351 -55 27 -153 30 -225 5 -64 -21 -141 -98 -152 -150 -21 -97 0 -322 51 -558
42 -195 40 -401 -5 -520 -53 -143 -138 -222 -289 -271 -74 -24 -102 -28 -210
-28 -122 -1 -127 0 -192 32 -172 85 -268 283 -358 742 -55 279 -69 354 -80
430 -7 41 -20 111 -30 155 -10 44 -24 112 -30 150 -6 39 -31 176 -56 305 -112
586 -137 735 -130 773 6 31 11 35 64 50 58 16 165 38 372 77 409 78 509 102
567 136 136 79 173 179 117 318 -47 117 -107 156 -241 156 -83 0 -517 -70
-807 -130 -54 -11 -118 -20 -143 -20 -41 0 -45 2 -59 35 -8 20 -30 129 -49
243 -19 114 -44 248 -54 297 -11 50 -29 139 -41 199 -37 194 -100 294 -209
331 -53 18 -87 18 -164 -1z"/>
<path d="M33780 14710 c-557 -24 -1127 -227 -1575 -560 -174 -130 -289 -233
-414 -371 -305 -337 -486 -657 -620 -1101 -57 -190 -65 -221 -86 -348 -72
-422 -86 -853 -39 -1194 44 -319 52 -368 92 -561 54 -260 79 -344 166 -568 25
-65 46 -124 46 -131 0 -7 14 -40 30 -72 17 -32 46 -95 66 -139 19 -44 48 -100
63 -125 16 -25 45 -76 66 -115 48 -90 187 -293 284 -415 195 -246 456 -471
726 -627 39 -23 135 -71 215 -107 80 -37 152 -71 162 -76 31 -17 303 -93 379
-106 42 -7 93 -17 115 -23 21 -5 76 -13 121 -16 45 -3 111 -9 147 -13 172 -21
588 -6 761 27 28 6 91 17 140 27 50 9 94 21 100 25 5 5 17 9 27 9 10 0 26 4
36 10 9 5 71 24 137 40 137 35 195 55 280 99 33 16 96 43 140 59 44 16 102 43
129 60 28 18 54 32 60 32 5 0 47 25 92 55 46 30 87 55 91 55 4 0 32 18 61 40
29 22 71 52 95 67 108 71 351 296 439 408 150 190 297 441 376 640 147 375
194 639 163 911 -12 101 -83 244 -155 312 -66 62 -108 84 -220 112 -127 32
-207 26 -308 -22 -147 -70 -210 -171 -242 -392 -29 -194 -46 -332 -46 -360 0
-32 -60 -249 -86 -312 -15 -37 -111 -231 -137 -277 -41 -74 -239 -299 -309
-353 -120 -91 -190 -136 -276 -177 -48 -22 -103 -51 -122 -62 -37 -23 -276
-96 -375 -115 -33 -6 -78 -16 -100 -20 -218 -49 -562 -56 -754 -15 -169 36
-176 38 -335 101 -131 52 -292 147 -416 245 -92 73 -269 250 -323 324 -28 38
-67 93 -88 120 -97 130 -251 439 -308 621 -78 249 -121 426 -121 497 0 45 2
49 33 61 17 8 55 17 82 20 51 8 252 44 385 70 101 20 368 69 575 106 94 17
199 37 235 45 36 8 153 31 260 50 107 20 238 45 290 55 224 45 537 101 645
115 28 3 75 12 105 20 30 7 96 21 145 30 50 9 104 21 120 26 37 10 162 33 620
113 211 37 293 52 600 117 329 68 382 91 433 187 29 55 32 67 32 153 0 52 -5
123 -10 159 -6 36 -13 88 -16 115 -3 28 -9 66 -14 85 -5 19 -14 64 -21 100 -7
36 -25 103 -40 150 -15 47 -32 105 -39 130 -40 159 -162 456 -226 555 -18 28
-43 73 -56 100 -33 70 -129 215 -196 297 -31 38 -67 84 -80 101 -62 86 -315
323 -447 418 -294 211 -486 302 -863 410 -170 49 -251 63 -447 79 -204 16
-274 18 -455 10z m310 -878 c186 -36 233 -48 320 -79 166 -60 300 -141 456
-276 99 -85 172 -163 229 -243 17 -23 42 -57 57 -76 24 -30 102 -163 133 -228
109 -224 182 -429 171 -476 -4 -13 -16 -30 -29 -38 -12 -8 -121 -31 -242 -51
-121 -19 -267 -45 -325 -56 -58 -10 -132 -24 -165 -29 -33 -5 -103 -19 -155
-30 -129 -28 -212 -44 -435 -85 -211 -39 -455 -85 -615 -116 -101 -19 -229
-44 -390 -74 -41 -7 -122 -23 -180 -34 -247 -48 -476 -90 -619 -111 -84 -13
-113 -21 -106 -28 3 -4 -29 -12 -72 -18 -43 -6 -95 -15 -115 -19 -35 -7 -38
-5 -45 21 -12 43 -8 408 6 489 21 135 40 224 50 244 6 11 16 43 22 73 14 66
86 229 145 328 91 151 105 172 180 262 122 149 291 298 419 368 33 19 89 53
125 76 36 23 81 45 100 49 19 4 67 20 105 36 165 67 406 122 575 131 116 7
341 1 400 -10z"/>
<path d="M22371 14455 c-153 -35 -208 -60 -322 -152 -71 -56 -107 -102 -164
-208 -57 -106 -75 -169 -82 -280 -8 -147 6 -220 68 -339 106 -207 214 -304
421 -378 87 -31 101 -33 223 -33 111 0 140 3 200 24 207 71 378 233 451 428
31 81 40 126 49 253 6 83 4 104 -15 165 -80 247 -243 419 -470 496 -115 38
-256 48 -359 24z"/>
<path d="M19505 14229 c-373 -65 -490 -95 -675 -172 -483 -201 -759 -435 -968
-817 -161 -296 -234 -737 -192 -1170 30 -317 43 -423 56 -472 28 -106 13 -159
-56 -195 -47 -26 -285 -79 -548 -123 -340 -58 -447 -113 -528 -274 -33 -66
-34 -73 -34 -182 0 -107 2 -119 36 -206 31 -79 46 -102 98 -153 85 -84 128
-103 269 -116 119 -12 171 -7 392 36 421 82 497 88 554 39 42 -35 77 -141 111
-334 16 -91 40 -221 54 -290 14 -69 37 -186 52 -260 15 -74 33 -171 40 -215 6
-44 19 -116 28 -160 61 -311 84 -429 122 -650 19 -110 40 -225 48 -255 8 -30
19 -89 25 -130 7 -41 18 -104 26 -140 8 -36 26 -128 40 -205 14 -77 39 -205
55 -285 45 -228 98 -530 105 -593 3 -31 12 -76 20 -100 26 -74 48 -282 43
-417 -3 -108 -7 -133 -29 -180 -30 -64 -76 -120 -123 -150 -45 -27 -246 -50
-456 -51 -137 -1 -175 -4 -224 -20 -143 -49 -221 -112 -277 -225 -27 -54 -33
-79 -37 -157 -4 -89 -3 -95 28 -157 61 -121 193 -233 312 -264 90 -23 208 -30
285 -16 220 39 286 58 411 116 40 19 78 34 84 34 20 0 213 62 263 85 85 38
137 56 205 71 36 7 115 25 175 39 61 14 154 32 209 40 54 8 102 17 106 20 21
13 224 24 520 30 485 9 581 24 713 109 133 86 207 182 240 315 16 61 9 126
-25 234 -18 57 -31 77 -75 120 -30 29 -84 70 -121 92 l-67 40 -105 -1 c-102
-1 -111 -3 -285 -63 -342 -119 -399 -132 -486 -111 -42 10 -63 24 -113 74
-120 120 -182 295 -256 721 -11 66 -29 161 -39 210 -11 50 -29 142 -40 205
-12 63 -35 187 -52 275 -17 88 -42 219 -55 290 -13 72 -32 180 -44 240 -11 61
-31 172 -45 249 -14 76 -27 141 -30 145 -2 4 -8 34 -14 67 -5 32 -24 133 -41
224 -17 91 -42 224 -55 295 -28 153 -79 419 -106 560 -11 55 -24 129 -29 165
-6 36 -17 97 -25 135 -44 213 -67 357 -61 389 4 18 16 46 27 60 38 49 10 42
629 161 96 19 204 39 240 45 104 18 199 49 293 97 103 53 151 102 204 210 l36
73 -7 101 c-11 167 -82 321 -179 386 -80 54 -142 66 -297 60 -74 -3 -183 -15
-242 -26 -261 -50 -333 -63 -498 -91 -96 -17 -182 -33 -190 -36 -8 -3 -35 -9
-59 -14 -54 -10 -136 13 -157 45 -14 22 -43 134 -70 275 -11 57 -18 163 -21
319 -5 246 0 301 49 491 22 88 113 273 169 346 51 67 202 190 287 234 134 70
246 110 397 141 138 28 161 30 285 25 249 -10 368 -67 331 -159 -40 -99 -44
-129 -33 -230 15 -122 48 -200 122 -280 97 -106 212 -165 363 -187 74 -10 98
-10 169 5 187 37 253 70 374 190 104 103 136 181 150 371 5 74 2 109 -19 211
-27 129 -39 160 -108 283 -57 102 -87 138 -177 213 -107 89 -210 154 -324 203
-169 74 -239 91 -551 135 -121 17 -478 10 -602 -12z"/>
<path d="M27830 13590 c-91 -4 -194 -14 -230 -22 -36 -9 -87 -19 -115 -23 -62
-8 -203 -41 -270 -62 -233 -74 -366 -122 -455 -165 -58 -28 -132 -64 -165 -79
-156 -74 -384 -234 -554 -389 -128 -117 -148 -137 -266 -279 -368 -443 -600
-1081 -645 -1771 -11 -178 3 -696 24 -863 25 -196 56 -365 93 -507 83 -318
118 -439 145 -500 27 -60 45 -105 101 -250 11 -30 30 -71 42 -90 12 -19 33
-62 47 -96 14 -34 46 -90 70 -126 23 -36 55 -87 71 -114 50 -90 69 -119 131
-203 107 -146 200 -252 342 -391 212 -206 394 -340 634 -467 78 -41 348 -153
369 -153 6 0 38 -11 71 -25 54 -23 119 -37 305 -65 39 -6 113 -18 165 -26 146
-22 446 -19 617 6 238 36 376 61 448 82 39 11 108 29 155 40 47 12 135 45 197
74 61 29 132 60 158 68 25 9 76 33 113 53 37 20 81 44 97 53 45 23 233 149
290 193 211 164 468 455 575 653 155 283 240 504 314 814 72 302 85 598 33
778 -55 189 -222 328 -417 348 -115 12 -139 9 -221 -25 -87 -37 -193 -129
-226 -196 -48 -97 -88 -291 -98 -480 -16 -290 -12 -260 -66 -485 -39 -162
-147 -384 -250 -516 -256 -328 -520 -484 -969 -573 -546 -107 -1003 -1 -1401
326 -224 184 -473 525 -594 814 -15 35 -42 93 -60 129 -29 58 -123 335 -140
415 -4 17 -20 71 -35 120 -51 163 -81 328 -104 580 -44 479 -20 862 75 1190
81 280 187 497 338 699 114 149 325 336 466 410 39 20 88 48 110 61 53 32 345
128 470 153 141 30 487 41 571 18 32 -8 98 -22 145 -31 284 -53 514 -189 675
-400 37 -48 48 -69 69 -126 44 -121 41 -130 -52 -154 -95 -25 -246 -124 -308
-202 -158 -199 -176 -406 -52 -621 96 -168 204 -256 397 -322 79 -27 99 -30
226 -31 155 -1 223 10 298 45 28 14 86 40 129 60 62 28 93 51 165 123 189 188
260 358 277 658 8 131 -7 335 -32 449 -24 107 -117 330 -173 412 -17 25 -40
64 -52 87 -66 132 -319 397 -488 514 -161 111 -304 188 -463 250 -91 35 -297
92 -402 111 -33 6 -73 14 -90 17 -117 24 -409 35 -625 25z"/>
<path d="M14870 13355 c-87 -12 -156 -25 -435 -85 -55 -12 -131 -35 -170 -52
-38 -16 -104 -43 -145 -59 -184 -72 -433 -218 -560 -328 -89 -78 -93 -81 -201
-209 -131 -154 -224 -333 -293 -563 -59 -198 -79 -362 -77 -649 1 -222 10
-325 50 -565 45 -269 45 -271 19 -290 -13 -8 -54 -25 -93 -37 -38 -11 -74 -24
-80 -28 -5 -4 -30 -11 -55 -15 -25 -4 -58 -13 -75 -21 -30 -14 -161 -38 -290
-54 -139 -17 -311 -62 -386 -100 -13 -7 -50 -37 -81 -68 -84 -82 -122 -175
-122 -297 0 -107 26 -193 83 -282 78 -121 161 -167 327 -185 93 -10 123 -9
209 6 55 9 156 26 225 37 175 27 290 48 325 59 17 5 53 10 82 11 43 2 56 -2
86 -27 66 -55 75 -74 116 -256 22 -95 42 -193 46 -218 3 -25 21 -126 40 -225
83 -436 117 -612 150 -790 20 -104 53 -282 75 -395 62 -327 111 -583 115 -610
4 -24 30 -163 110 -585 19 -99 49 -252 66 -340 18 -88 36 -187 41 -220 5 -33
16 -98 24 -145 25 -152 12 -371 -28 -456 -27 -58 -74 -107 -133 -137 -42 -21
-73 -27 -190 -36 -77 -6 -210 -13 -295 -15 -153 -3 -156 -4 -242 -41 -129 -55
-196 -130 -243 -274 -46 -140 32 -343 165 -426 94 -59 142 -79 230 -97 83 -16
107 -17 190 -8 128 15 310 64 393 106 38 19 132 52 210 75 78 22 165 51 192
64 56 25 282 88 420 116 50 10 122 26 160 34 150 32 326 45 663 49 482 6 564
21 714 132 149 110 211 216 212 364 0 105 -18 159 -85 250 -94 126 -226 184
-373 160 -68 -11 -429 -125 -496 -157 -49 -23 -223 -24 -265 -1 -92 50 -174
183 -228 373 -28 99 -106 482 -132 650 -4 22 -13 74 -22 115 -8 41 -25 135
-38 209 -13 74 -29 137 -35 141 -7 4 -16 38 -20 76 -23 201 -34 270 -60 389
-16 72 -34 164 -40 205 -10 70 -52 284 -84 430 -27 124 -35 165 -52 270 -9 58
-26 146 -36 195 -11 50 -24 115 -28 145 -19 124 -51 302 -75 415 -25 114 -39
187 -71 355 -46 238 -43 318 9 350 17 11 56 24 87 30 30 5 98 19 150 29 52 11
192 38 310 61 118 22 240 45 270 51 315 61 480 166 546 345 23 64 26 83 20
142 -14 153 -55 253 -136 338 -50 53 -93 76 -181 99 -79 21 -245 15 -407 -16
-59 -11 -156 -29 -217 -40 -60 -11 -150 -28 -200 -39 -292 -62 -411 -73 -453
-44 -32 22 -47 57 -71 169 -49 235 -56 301 -55 540 1 222 3 234 32 347 32 122
96 271 153 355 18 26 75 89 127 140 87 85 106 97 236 162 155 76 298 117 494
141 195 25 453 -26 484 -96 9 -20 6 -37 -18 -96 -24 -62 -29 -86 -28 -158 1
-75 5 -95 38 -171 20 -47 51 -102 67 -123 35 -41 156 -134 217 -165 45 -23
168 -51 224 -51 66 0 250 41 302 67 147 74 221 150 290 293 38 82 40 89 44
206 7 226 -50 407 -191 596 -52 70 -74 92 -198 191 -95 76 -248 149 -401 192
-201 56 -364 77 -618 80 -152 2 -269 -2 -330 -10z"/>
<path d="M23002 12516 c-63 -19 -138 -49 -170 -69 -94 -57 -138 -77 -281 -124
l-136 -45 -181 -5 c-113 -4 -210 -1 -260 6 -57 8 -113 8 -199 1 -203 -16 -308
-54 -390 -139 -98 -101 -132 -196 -123 -344 10 -150 85 -280 194 -335 62 -31
161 -62 198 -62 80 0 288 55 375 99 86 44 224 83 316 88 124 7 164 -13 247
-127 59 -82 188 -508 222 -740 9 -57 89 -481 118 -620 11 -58 27 -141 33 -185
7 -44 26 -147 43 -230 33 -165 98 -507 107 -570 4 -22 19 -101 35 -175 16 -74
32 -155 35 -180 8 -56 42 -239 56 -300 6 -25 17 -81 23 -125 7 -44 27 -147 44
-230 58 -283 102 -633 102 -810 0 -85 -5 -113 -30 -185 -16 -46 -37 -95 -48
-109 -47 -63 -167 -87 -492 -96 -163 -5 -215 -10 -260 -25 -145 -50 -153 -54
-203 -115 -82 -101 -100 -146 -105 -256 -4 -92 -3 -98 34 -185 48 -110 124
-192 224 -241 102 -50 176 -59 290 -39 52 10 110 24 129 31 20 8 65 21 99 29
35 9 94 29 132 46 37 16 112 44 166 61 55 17 144 48 198 70 182 73 516 145
776 169 63 5 273 14 465 19 193 5 364 14 380 19 17 5 57 15 90 21 109 21 166
44 240 95 89 62 149 130 189 216 28 59 31 75 31 165 0 95 -2 105 -33 166 -40
79 -94 137 -173 185 -50 30 -73 37 -153 46 -118 13 -192 -2 -381 -78 -166 -66
-227 -84 -287 -84 -105 0 -197 74 -249 200 -17 41 -35 80 -40 86 -9 11 -37
140 -70 324 -10 58 -28 146 -39 195 -10 50 -28 142 -40 205 -11 63 -27 149
-35 190 -8 41 -28 145 -45 230 -16 85 -46 245 -65 355 -50 283 -71 394 -83
440 -6 22 -21 96 -33 165 -12 69 -34 190 -49 270 -16 80 -38 199 -50 265 -11
66 -28 154 -36 195 -26 133 -45 233 -59 325 -16 99 -34 189 -70 340 -13 55
-29 138 -35 185 -10 78 -47 274 -100 540 -12 58 -30 151 -40 206 -38 212 -88
375 -136 445 -75 111 -118 141 -225 159 -78 12 -53 15 -187 -24z"/>
<path d="M9125 10024 c-5 -2 -104 -8 -220 -14 -210 -10 -361 -27 -380 -41 -5
-4 -32 -10 -60 -14 -176 -23 -326 -63 -560 -150 -55 -20 -111 -40 -125 -45
-56 -17 -403 -201 -466 -246 -154 -112 -227 -168 -262 -201 -20 -19 -59 -54
-86 -76 -102 -85 -291 -320 -404 -501 -92 -148 -226 -426 -281 -586 -48 -138
-100 -340 -122 -465 -6 -33 -17 -98 -25 -145 -22 -124 -29 -260 -29 -575 0
-246 4 -308 28 -505 31 -247 50 -369 72 -445 8 -27 31 -113 50 -190 72 -289
96 -371 121 -425 15 -30 40 -91 55 -135 16 -44 47 -116 69 -160 21 -44 55
-114 74 -155 95 -200 269 -472 395 -613 35 -40 80 -95 101 -122 70 -95 411
-393 503 -442 16 -8 48 -29 72 -48 40 -30 146 -85 325 -167 36 -16 88 -40 115
-53 28 -13 70 -28 95 -34 25 -6 72 -20 105 -31 104 -37 146 -47 275 -64 69 -9
150 -21 180 -26 30 -5 147 -13 260 -16 164 -5 227 -3 314 10 60 9 159 21 220
26 138 12 259 33 356 64 41 14 133 43 203 65 71 23 165 59 210 80 45 22 102
44 127 51 25 6 63 24 85 39 22 16 72 45 111 64 248 125 590 409 789 656 247
308 436 681 534 1054 42 160 101 491 113 637 12 144 5 629 -10 740 -6 41 -16
122 -23 180 -19 176 -48 341 -80 456 -17 60 -36 132 -43 159 -80 306 -221 647
-404 973 -53 93 -74 126 -186 282 -138 193 -241 315 -377 444 -113 108 -262
230 -349 287 -30 19 -77 50 -105 67 -79 52 -272 147 -375 185 -176 65 -406
124 -575 146 -107 14 -389 31 -410 25z m169 -859 c169 -20 228 -31 268 -48 18
-8 60 -22 93 -32 82 -23 226 -92 310 -148 93 -61 231 -178 297 -252 100 -111
235 -300 284 -397 13 -26 42 -75 64 -109 22 -34 40 -68 40 -74 0 -7 23 -59 51
-116 28 -57 64 -140 79 -184 132 -389 151 -452 190 -645 46 -231 64 -386 80
-705 11 -230 2 -494 -19 -548 -6 -16 -11 -54 -11 -86 0 -32 -9 -87 -20 -121
-11 -34 -20 -73 -20 -85 0 -13 -9 -54 -20 -91 -11 -38 -28 -94 -36 -124 -9
-30 -29 -82 -44 -115 -16 -33 -40 -86 -54 -118 -89 -202 -282 -443 -461 -576
-144 -107 -179 -129 -267 -168 -46 -21 -104 -50 -131 -65 -64 -37 -183 -71
-424 -119 -254 -50 -382 -62 -544 -49 -469 37 -821 227 -1167 630 -39 47 -83
101 -96 120 -85 128 -111 170 -135 220 -15 31 -37 69 -48 83 -11 15 -45 87
-74 159 -28 73 -65 158 -80 188 -15 30 -37 91 -49 135 -12 44 -27 98 -34 120
-86 253 -138 476 -160 682 -21 198 -39 540 -32 625 3 40 8 115 12 167 3 51 10
105 15 118 5 13 9 48 9 77 0 28 6 76 14 106 7 30 19 87 26 125 7 39 17 78 22
89 6 10 18 53 28 95 10 42 28 99 40 126 12 28 28 68 36 91 12 36 66 135 145
269 61 103 246 311 323 362 22 15 59 41 81 58 22 18 74 49 115 70 41 21 86 46
100 55 22 15 76 34 195 69 17 5 46 12 65 16 19 4 40 11 46 16 13 10 141 48
249 74 39 9 165 22 280 29 116 7 217 14 224 15 8 0 74 -6 145 -14z"/>
</g>
</svg>
